<svg xmlns="http://www.w3.org/2000/svg" viewBox="0 0 300 600" width="300" height="600">
  <defs>
    <linearGradient id="badge" x1="0" y1="0" x2="1" y2="1">
      <stop offset="0%" stop-color="#FF6B6B" /><stop offset="100%" stop-color="#4ECDC4" />
    </linearGradient>
  </defs>
  <rect width="300" height="600" rx="34" fill="#121212" />

  <text x="26" y="34" font-family="Inter, Arial, sans-serif" font-size="12" fill="#FFFFFF" font-weight="600">9:41</text>
  <rect x="248" y="26" width="26" height="10" rx="3" fill="none" stroke="#FFFFFF" stroke-opacity="0.6" />
  <rect x="250" y="28" width="18" height="6" rx="1.5" fill="#FFFFFF" fill-opacity="0.7" />

  <rect x="24" y="50" width="36" height="36" rx="11" fill="url(#badge)" />
  <rect x="34" y="60" width="9" height="9" rx="2" fill="#fff" />
  <rect x="47" y="60" width="9" height="9" rx="2" fill="#fff" fill-opacity="0.6" />
  <rect x="34" y="73" width="9" height="9" rx="2" fill="#fff" fill-opacity="0.6" />
  <rect x="47" y="73" width="9" height="9" rx="2" fill="#fff" />
  <text x="72" y="72" font-family="Inter, Arial, sans-serif" font-size="15" fill="#FFFFFF" font-weight="700">Categories</text>
  <text x="72" y="88" font-family="Inter, Arial, sans-serif" font-size="11" fill="#A0A0A0">Tap to expand, fully customizable</text>

  <circle cx="256" cy="66" r="18" fill="none" stroke="#FF6B6B" stroke-width="1.6" />
  <line x1="256" y1="59" x2="256" y2="73" stroke="#FF6B6B" stroke-width="2" stroke-linecap="round" />
  <line x1="249" y1="66" x2="263" y2="66" stroke="#FF6B6B" stroke-width="2" stroke-linecap="round" />

  <!-- Food & Drink: expanded parent -->
  <rect x="24" y="112" width="252" height="48" rx="16" fill="#1E1E1E" stroke="#FF6B6B" />
  <circle cx="48" cy="136" r="11" fill="#FF6B6B" />
  <text x="70" y="141" font-family="Inter, Arial, sans-serif" font-size="13" fill="#FFFFFF" font-weight="600">Food &amp; Drink</text>
  <path d="M250 130 l6 7 6 -7" fill="none" stroke="#FF6B6B" stroke-width="2" stroke-linecap="round" stroke-linejoin="round" />

  <!-- children (indented) -->
  <circle cx="82" cy="180" r="5" fill="#FF6B6B" /><text x="96" y="184" font-family="Inter, Arial, sans-serif" font-size="11.5" fill="#A0A0A0">Groceries</text>
  <circle cx="82" cy="214" r="5" fill="#FF6B6B" /><text x="96" y="218" font-family="Inter, Arial, sans-serif" font-size="11.5" fill="#A0A0A0">Restaurants</text>
  <circle cx="82" cy="248" r="5" fill="#FF6B6B" /><text x="96" y="252" font-family="Inter, Arial, sans-serif" font-size="11.5" fill="#A0A0A0">Coffee</text>

  <!-- collapsed parents -->
  <rect x="24" y="272" width="252" height="48" rx="16" fill="#1E1E1E" stroke="#2C2C2C" />
  <circle cx="48" cy="296" r="11" fill="#4ECDC4" />
  <text x="70" y="301" font-family="Inter, Arial, sans-serif" font-size="13" fill="#FFFFFF" font-weight="600">Bills &amp; Utilities</text>
  <path d="M252 290 l6 6 -6 6" fill="none" stroke="#666666" stroke-width="2" stroke-linecap="round" stroke-linejoin="round" />

  <rect x="24" y="330" width="252" height="48" rx="16" fill="#1E1E1E" stroke="#2C2C2C" />
  <circle cx="48" cy="354" r="11" fill="#FFA502" />
  <text x="70" y="359" font-family="Inter, Arial, sans-serif" font-size="13" fill="#FFFFFF" font-weight="600">Transport</text>
  <path d="M252 348 l6 6 -6 6" fill="none" stroke="#666666" stroke-width="2" stroke-linecap="round" stroke-linejoin="round" />

  <rect x="24" y="388" width="252" height="48" rx="16" fill="#1E1E1E" stroke="#2C2C2C" />
  <circle cx="48" cy="412" r="11" fill="#2ECC71" />
  <text x="70" y="417" font-family="Inter, Arial, sans-serif" font-size="13" fill="#FFFFFF" font-weight="600">Salary</text>
  <path d="M252 406 l6 6 -6 6" fill="none" stroke="#666666" stroke-width="2" stroke-linecap="round" stroke-linejoin="round" />

  <rect x="24" y="446" width="252" height="48" rx="16" fill="#1E1E1E" stroke="#2C2C2C" />
  <circle cx="48" cy="470" r="11" fill="#9B59B6" />
  <text x="70" y="475" font-family="Inter, Arial, sans-serif" font-size="13" fill="#FFFFFF" font-weight="600">Shopping</text>
  <path d="M252 464 l6 6 -6 6" fill="none" stroke="#666666" stroke-width="2" stroke-linecap="round" stroke-linejoin="round" />

  <rect x="0" y="546" width="300" height="54" fill="#171717" />
  <line x1="0" y1="546" x2="300" y2="546" stroke="#2C2C2C" stroke-width="1" />
  <path d="M44 565 l10 -8 10 8 v14 h-20 z" fill="none" stroke="#666666" stroke-width="2" stroke-linejoin="round" />
  <rect x="98" y="562" width="20" height="15" rx="3" fill="none" stroke="#666666" stroke-width="2" />
  <circle cx="150" cy="568" r="20" fill="url(#badge)" />
  <line x1="150" y1="560" x2="150" y2="576" stroke="#FFFFFF" stroke-width="2.4" stroke-linecap="round" />
  <line x1="142" y1="568" x2="158" y2="568" stroke="#FFFFFF" stroke-width="2.4" stroke-linecap="round" />
  <circle cx="200" cy="566" r="6" fill="none" stroke="#666666" stroke-width="2" />
  <path d="M190 580 q10 -10 20 0" stroke="#666666" stroke-width="2" fill="none" stroke-linecap="round" />
  <circle cx="252" cy="564" r="2.2" fill="#666666" />
  <circle cx="260" cy="571" r="2.2" fill="#666666" />
  <circle cx="252" cy="578" r="2.2" fill="#666666" />
</svg>
