<svg xmlns="http://www.w3.org/2000/svg" viewBox="0 0 300 600" width="300" height="600">
  <defs>
    <linearGradient id="badge" x1="0" y1="0" x2="1" y2="1">
      <stop offset="0%" stop-color="#FF6B6B" /><stop offset="100%" stop-color="#4ECDC4" />
    </linearGradient>
  </defs>
  <rect width="300" height="600" rx="34" fill="#121212" />

  <text x="26" y="34" font-family="Inter, Arial, sans-serif" font-size="12" fill="#FFFFFF" font-weight="600">9:41</text>
  <rect x="248" y="26" width="26" height="10" rx="3" fill="none" stroke="#FFFFFF" stroke-opacity="0.6" />
  <rect x="250" y="28" width="18" height="6" rx="1.5" fill="#FFFFFF" fill-opacity="0.7" />

  <rect x="24" y="50" width="36" height="36" rx="11" fill="url(#badge)" />
  <rect x="34" y="60" width="16" height="20" rx="2" fill="none" stroke="#fff" stroke-width="2" />
  <line x1="37" y1="66" x2="47" y2="66" stroke="#fff" stroke-width="1.6" />
  <line x1="37" y1="71" x2="47" y2="71" stroke="#fff" stroke-width="1.6" />
  <line x1="37" y1="76" x2="43" y2="76" stroke="#fff" stroke-width="1.6" />
  <text x="72" y="72" font-family="Inter, Arial, sans-serif" font-size="15" fill="#FFFFFF" font-weight="700">History</text>
  <text x="72" y="88" font-family="Inter, Arial, sans-serif" font-size="11" fill="#A0A0A0">Every transaction, all in one place</text>

  <!-- filter chips + export -->
  <rect x="24" y="112" width="70" height="30" rx="15" fill="#FF6B6B" />
  <text x="59" y="132" text-anchor="middle" font-family="Inter, Arial, sans-serif" font-size="10.5" fill="#FFFFFF" font-weight="600">This Month</text>

  <rect x="100" y="112" width="62" height="30" rx="15" fill="none" stroke="#2C2C2C" stroke-width="1.4" />
  <text x="131" y="132" text-anchor="middle" font-family="Inter, Arial, sans-serif" font-size="10.5" fill="#A0A0A0">All Time</text>

  <rect x="212" y="112" width="64" height="36" rx="18" fill="none" stroke="#FF6B6B" stroke-width="1.4" />
  <text x="244" y="134" text-anchor="middle" font-family="Inter, Arial, sans-serif" font-size="10.5" fill="#FF6B6B" font-weight="600">Export</text>
  <rect x="248" y="103" width="30" height="15" rx="7.5" fill="#FFA502" />
  <text x="263" y="114" text-anchor="middle" font-family="Inter, Arial, sans-serif" font-size="8.5" fill="#FFFFFF" font-weight="700">PRO</text>

  <!-- date group -->
  <text x="24" y="176" font-family="Inter, Arial, sans-serif" font-size="11.5" fill="#A0A0A0" font-weight="600">Today</text>

  <circle cx="40" cy="204" r="15" fill="#FF6B6B" fill-opacity="0.15" />
  <rect x="34" y="198" width="12" height="12" rx="3" fill="#FF6B6B" />
  <text x="62" y="202" font-family="Inter, Arial, sans-serif" font-size="12.5" fill="#FFFFFF">Groceries</text>
  <text x="62" y="217" font-family="Inter, Arial, sans-serif" font-size="10" fill="#A0A0A0">Bank Account</text>
  <text x="276" y="208" text-anchor="end" font-family="Inter, Arial, sans-serif" font-size="12.5" fill="#FF4757" font-weight="600">-$45.20</text>

  <circle cx="40" cy="250" r="15" fill="#FFA502" fill-opacity="0.15" />
  <rect x="34" y="244" width="12" height="12" rx="3" fill="#FFA502" />
  <text x="62" y="248" font-family="Inter, Arial, sans-serif" font-size="12.5" fill="#FFFFFF">Netflix</text>
  <text x="62" y="263" font-family="Inter, Arial, sans-serif" font-size="10" fill="#A0A0A0">Bank Account</text>
  <text x="276" y="254" text-anchor="end" font-family="Inter, Arial, sans-serif" font-size="12.5" fill="#FF4757" font-weight="600">-$15.99</text>

  <text x="24" y="304" font-family="Inter, Arial, sans-serif" font-size="11.5" fill="#A0A0A0" font-weight="600">Yesterday</text>

  <circle cx="40" cy="332" r="15" fill="#2ECC71" fill-opacity="0.15" />
  <rect x="34" y="326" width="12" height="12" rx="3" fill="#2ECC71" />
  <text x="62" y="330" font-family="Inter, Arial, sans-serif" font-size="12.5" fill="#FFFFFF">Salary</text>
  <text x="62" y="345" font-family="Inter, Arial, sans-serif" font-size="10" fill="#A0A0A0">Bank Account</text>
  <text x="276" y="336" text-anchor="end" font-family="Inter, Arial, sans-serif" font-size="12.5" fill="#2ECC71" font-weight="600">+$3,200.00</text>

  <circle cx="40" cy="378" r="15" fill="#4ECDC4" fill-opacity="0.15" />
  <rect x="34" y="372" width="12" height="12" rx="3" fill="#4ECDC4" />
  <text x="62" y="376" font-family="Inter, Arial, sans-serif" font-size="12.5" fill="#FFFFFF">Freelance</text>
  <text x="62" y="391" font-family="Inter, Arial, sans-serif" font-size="10" fill="#A0A0A0">Cash</text>
  <text x="276" y="382" text-anchor="end" font-family="Inter, Arial, sans-serif" font-size="12.5" fill="#2ECC71" font-weight="600">+$450.00</text>

  <text x="24" y="432" font-family="Inter, Arial, sans-serif" font-size="11.5" fill="#A0A0A0" font-weight="600">Aug 2</text>

  <circle cx="40" cy="460" r="15" fill="#9B59B6" fill-opacity="0.15" />
  <rect x="34" y="454" width="12" height="12" rx="3" fill="#9B59B6" />
  <text x="62" y="458" font-family="Inter, Arial, sans-serif" font-size="12.5" fill="#FFFFFF">New Shoes</text>
  <text x="62" y="473" font-family="Inter, Arial, sans-serif" font-size="10" fill="#A0A0A0">Credit Card</text>
  <text x="276" y="464" text-anchor="end" font-family="Inter, Arial, sans-serif" font-size="12.5" fill="#FF4757" font-weight="600">-$89.00</text>

  <circle cx="40" cy="506" r="15" fill="#FF6B6B" fill-opacity="0.15" />
  <rect x="34" y="500" width="12" height="12" rx="3" fill="#FF6B6B" />
  <text x="62" y="504" font-family="Inter, Arial, sans-serif" font-size="12.5" fill="#FFFFFF">Fuel</text>
  <text x="62" y="519" font-family="Inter, Arial, sans-serif" font-size="10" fill="#A0A0A0">Bank Account</text>
  <text x="276" y="510" text-anchor="end" font-family="Inter, Arial, sans-serif" font-size="12.5" fill="#FF4757" font-weight="600">-$32.50</text>

  <rect x="0" y="546" width="300" height="54" fill="#171717" />
  <line x1="0" y1="546" x2="300" y2="546" stroke="#2C2C2C" stroke-width="1" />
  <path d="M44 565 l10 -8 10 8 v14 h-20 z" fill="none" stroke="#666666" stroke-width="2" stroke-linejoin="round" />
  <rect x="98" y="562" width="20" height="15" rx="3" fill="none" stroke="#FF6B6B" stroke-width="2" />
  <circle cx="150" cy="568" r="20" fill="url(#badge)" />
  <line x1="150" y1="560" x2="150" y2="576" stroke="#FFFFFF" stroke-width="2.4" stroke-linecap="round" />
  <line x1="142" y1="568" x2="158" y2="568" stroke="#FFFFFF" stroke-width="2.4" stroke-linecap="round" />
  <circle cx="200" cy="566" r="6" fill="none" stroke="#666666" stroke-width="2" />
  <path d="M190 580 q10 -10 20 0" stroke="#666666" stroke-width="2" fill="none" stroke-linecap="round" />
  <circle cx="252" cy="564" r="2.2" fill="#666666" />
  <circle cx="260" cy="571" r="2.2" fill="#666666" />
  <circle cx="252" cy="578" r="2.2" fill="#666666" />
</svg>
